<svg xmlns="http://www.w3.org/2000/svg" xmlns:xlink="http://www.w3.org/1999/xlink" viewBox="0 0 24 23.92"><defs><style>.b4a7efbf-c14d-4594-8253-95cfcc908d67{fill:url(#b4f368db-9ffb-47c8-a655-426111071731);}.ed2b891d-0ace-42ce-b262-60098e1338d4{fill:#b6daeb;}.bfa0f43c-7a1c-4437-acf9-5bde681486ca{fill:#4bb8dd;}.a6c93c81-bf12-4745-803a-ec0e581c9772{fill:url(#f26f116a-6650-45bf-8ad4-4691a2301d8f);}.eac77ea2-7031-473a-93ee-dea48b159645{fill:url(#a3d0fe30-09cc-432d-87e4-c2c9db883741);}.a8e29438-55b5-468b-ad8c-d3ebd2eea9a6{fill:url(#bb31686d-d305-46cb-b610-a0264b496d13);}.bd498593-d341-4a53-84cc-0281683ade8d{clip-path:url(#a3175467-8d44-40cc-9ef9-279d3c1f80c4);}.f7c87d81-3b38-4d50-b5b9-d7d8d04188af{fill:url(#a171e51d-243a-4a9d-b753-8cd7d5af3667);}.afb108e0-1c9b-4a58-bb11-93b5ba474d49{fill:#fff;}.b4621534-79df-4ea2-9b80-0be3a2cc3bb5{clip-path:url(#a92277b7-fcd8-4648-a6c8-81df80e9debf);}.a5ab699f-fd48-451b-a3d4-77e064e894ab{fill:url(#a1b85e33-b866-4666-aa31-b5cdc06f2eb7);}</style><linearGradient id="b4f368db-9ffb-47c8-a655-426111071731" x1="8.68" y1="4.82" x2="6.67" y2="13.37" gradientUnits="userSpaceOnUse"><stop offset="0" stop-color="#e2f0f6"/><stop offset="1" stop-color="#7fbedb"/></linearGradient><linearGradient id="f26f116a-6650-45bf-8ad4-4691a2301d8f" x1="24.45" y1="9.02" x2="1.51" y2="9.47" gradientTransform="translate(24 18.52) rotate(-180)" gradientUnits="userSpaceOnUse"><stop offset="0" stop-color="#007ac2"/><stop offset="1" stop-color="#005c8e"/></linearGradient><linearGradient id="a3d0fe30-09cc-432d-87e4-c2c9db883741" x1="24.52" y1="12.6" x2="1.58" y2="13.06" gradientTransform="matrix(1, 0, 0, 1, 0, 0)" xlink:href="#f26f116a-6650-45bf-8ad4-4691a2301d8f"/><linearGradient id="bb31686d-d305-46cb-b610-a0264b496d13" x1="24.51" y1="12.42" x2="1.58" y2="12.87" gradientTransform="matrix(1, 0, 0, 1, 0, 0)" xlink:href="#f26f116a-6650-45bf-8ad4-4691a2301d8f"/><clipPath id="a3175467-8d44-40cc-9ef9-279d3c1f80c4"><path class="b4a7efbf-c14d-4594-8253-95cfcc908d67" d="M5.65,14.74H9a.69.69,0,0,0,.68-.59l.64-4.26H4.33L5,14.15A.69.69,0,0,0,5.65,14.74Z"/></clipPath><linearGradient id="a171e51d-243a-4a9d-b753-8cd7d5af3667" x1="2.39" y1="7.83" x2="10.47" y2="14.47" xlink:href="#b4f368db-9ffb-47c8-a655-426111071731"/><clipPath id="a92277b7-fcd8-4648-a6c8-81df80e9debf"><path class="ed2b891d-0ace-42ce-b262-60098e1338d4" d="M15,14.74h3.3a.69.69,0,0,0,.68-.59l.64-4.26H13.64l.65,4.26A.69.69,0,0,0,15,14.74Z"/></clipPath><linearGradient id="a1b85e33-b866-4666-aa31-b5cdc06f2eb7" x1="17.51" y1="6.91" x2="15.49" y2="15.45" xlink:href="#b4f368db-9ffb-47c8-a655-426111071731"/></defs><title>business</title><g id="abbab1a6-8af7-4775-94a1-06d86a573a57" data-name="Layer 2"><g id="ec49fb0e-08c2-49bf-8abc-3f26d4ec31b6" data-name="icons"><g id="fe460759-3176-445d-8c9e-ef360042cb73" data-name="business"><rect class="bfa0f43c-7a1c-4437-acf9-5bde681486ca" width="24" height="23.92"/><g id="ecca1545-211a-4c25-a90a-5065a212de71" data-name="glasses"><rect class="a6c93c81-bf12-4745-803a-ec0e581c9772" x="1.47" y="8.01" width="21.05" height="2.5" rx="1.25" transform="translate(24 18.52) rotate(180)"/><path class="eac77ea2-7031-473a-93ee-dea48b159645" d="M14.73,15.91H18.5A1.48,1.48,0,0,0,20,14.7l.92-5H12.35l.93,5A1.48,1.48,0,0,0,14.73,15.91Z"/><path class="a8e29438-55b5-468b-ad8c-d3ebd2eea9a6" d="M5.42,15.91H9.19a1.47,1.47,0,0,0,1.45-1.21l.93-5H3l.93,5A1.46,1.46,0,0,0,5.42,15.91Z"/><path class="b4a7efbf-c14d-4594-8253-95cfcc908d67" d="M5.65,14.74H9a.69.69,0,0,0,.68-.59l.64-4.26H4.33L5,14.15A.69.69,0,0,0,5.65,14.74Z"/><g class="bd498593-d341-4a53-84cc-0281683ade8d"><path class="f7c87d81-3b38-4d50-b5b9-d7d8d04188af" d="M5.65,14.74H9a.69.69,0,0,0,.68-.59l.64-4.26H4.33L5,14.15A.69.69,0,0,0,5.65,14.74Z"/><rect class="afb108e0-1c9b-4a58-bb11-93b5ba474d49" x="3.39" y="10.79" width="8.11" height="2.15" transform="translate(5.73 25.77) rotate(-140.88)"/></g><path class="ed2b891d-0ace-42ce-b262-60098e1338d4" d="M15,14.74h3.3a.69.69,0,0,0,.68-.59l.64-4.26H13.64l.65,4.26A.69.69,0,0,0,15,14.74Z"/><g class="b4621534-79df-4ea2-9b80-0be3a2cc3bb5"><path class="a5ab699f-fd48-451b-a3d4-77e064e894ab" d="M15,14.74h3.3a.69.69,0,0,0,.68-.59l.64-4.26H13.64l.65,4.26A.69.69,0,0,0,15,14.74Z"/><rect class="afb108e0-1c9b-4a58-bb11-93b5ba474d49" x="12.57" y="10.79" width="8.11" height="2.15" transform="translate(22.04 31.56) rotate(-140.88)"/></g></g></g></g></g></svg>