<svg xmlns="http://www.w3.org/2000/svg" xmlns:xlink="http://www.w3.org/1999/xlink" viewBox="0 0 24 24"><defs><style>.e8df5833-c7df-4409-8f78-a9ea86f2cabd{fill:#f88f86;}.ad83e3a8-5df6-40f5-8352-d7446b80294b{fill:url(#b59d1dbb-ac77-4c95-8f0b-90a323fa9301);}.acda4f21-b638-4443-bcf3-6ba1d4a69c08{fill:url(#a602a04f-10f1-455a-b412-96e53677a494);}.a0f3323e-59e7-4f27-ba6c-ba537292e136{fill:url(#bfe31094-99cc-4f27-ae3f-6843aa839b26);}.b1ed41f6-b440-475d-a57e-3c44653dce70{fill:#f4a4c2;}.ebdc4d32-1c45-4230-a066-37c805001144{fill:url(#a66985e0-b6a7-46f7-b7a3-ce9553d5eea3);}.a6eb8c48-4573-4cab-a66d-ef520c337eac{fill:url(#f79f603c-bf36-4e41-891c-bbb3f30dcaef);}.e83f42ab-06c9-42e5-b4c4-ec300b05afb4{fill:url(#fff18c96-98a8-42f5-a477-20afc471fc7a);}.e556cb38-1704-4ddc-9567-cfb09674e92b{fill:url(#bb6a5024-93a0-4dca-b84f-f25792ad3b23);}.ba1e0198-cc6c-45d8-b502-25bfdd9d7029{fill:url(#eb54738b-35bf-43b5-b950-262cc27855a5);}.f44824e1-5266-494b-a045-35fd6b44d4ae{fill:url(#a90a66cb-a76d-4483-ad71-b50e74fc7160);}.e8c93e41-d821-48ad-9255-77f6fe7c05d8{fill:url(#e50bec9f-1468-462f-a909-6a3e9d60d580);}.f42bfe28-da16-4221-9947-43612e18d7e1{fill:url(#a35238a3-7c33-47e9-a288-dbb8569770e6);}.a4d1049a-1eee-44bc-8061-d658b6031d7d{fill:url(#f1cb0a92-c306-4470-b5ff-ece8f0e4e2ec);}</style><linearGradient id="b59d1dbb-ac77-4c95-8f0b-90a323fa9301" x1="9.73" y1="16.42" x2="15.89" y2="15.33" gradientUnits="userSpaceOnUse"><stop offset="0" stop-color="#f7b0aa"/><stop offset="1" stop-color="#fad2cd"/></linearGradient><linearGradient id="a602a04f-10f1-455a-b412-96e53677a494" x1="13.64" y1="15.81" x2="19.25" y2="14.41" gradientTransform="translate(-0.5 28.75) rotate(-76.12)" gradientUnits="userSpaceOnUse"><stop offset="0" stop-color="#f88f86"/><stop offset="1" stop-color="#fe6d60"/></linearGradient><linearGradient id="bfe31094-99cc-4f27-ae3f-6843aa839b26" x1="13.64" y1="15.8" x2="19.25" y2="14.4" gradientTransform="translate(-5.27 25.01) rotate(-76.12)" xlink:href="#a602a04f-10f1-455a-b412-96e53677a494"/><linearGradient id="a66985e0-b6a7-46f7-b7a3-ce9553d5eea3" x1="15.73" y1="6.24" x2="7.01" y2="17.77" gradientUnits="userSpaceOnUse"><stop offset="0" stop-color="#fdebeb"/><stop offset="1" stop-color="#f7b0aa"/></linearGradient><linearGradient id="f79f603c-bf36-4e41-891c-bbb3f30dcaef" x1="8.74" y1="16.22" x2="14" y2="8.28" gradientTransform="translate(-2.48 9.61) rotate(-35.56)" xlink:href="#a602a04f-10f1-455a-b412-96e53677a494"/><linearGradient id="fff18c96-98a8-42f5-a477-20afc471fc7a" x1="8.6" y1="16.12" x2="13.85" y2="8.18" gradientTransform="translate(-5.34 8.69) rotate(-35.56)" xlink:href="#a602a04f-10f1-455a-b412-96e53677a494"/><linearGradient id="bb6a5024-93a0-4dca-b84f-f25792ad3b23" x1="8.45" y1="16.03" x2="13.71" y2="8.08" gradientTransform="translate(-8.2 7.77) rotate(-35.56)" xlink:href="#a602a04f-10f1-455a-b412-96e53677a494"/><linearGradient id="eb54738b-35bf-43b5-b950-262cc27855a5" x1="6.46" y1="17.73" x2="6.46" y2="22.09" gradientUnits="userSpaceOnUse"><stop offset="0" stop-color="#bc3e2e"/><stop offset="1" stop-color="#de4739"/></linearGradient><linearGradient id="a90a66cb-a76d-4483-ad71-b50e74fc7160" x1="6.63" y1="7.02" x2="6.32" y2="16.6" gradientUnits="userSpaceOnUse"><stop offset="0" stop-color="#fdebeb"/><stop offset="1" stop-color="#fad2cd"/></linearGradient><linearGradient id="e50bec9f-1468-462f-a909-6a3e9d60d580" x1="6.55" y1="4.37" x2="6.09" y2="18.7" gradientUnits="userSpaceOnUse"><stop offset="0" stop-color="#de4739"/><stop offset="1" stop-color="#fe6d60"/></linearGradient><linearGradient id="a35238a3-7c33-47e9-a288-dbb8569770e6" x1="6.71" y1="4.37" x2="6.25" y2="18.71" xlink:href="#e50bec9f-1468-462f-a909-6a3e9d60d580"/><linearGradient id="f1cb0a92-c306-4470-b5ff-ece8f0e4e2ec" x1="6.87" y1="4.38" x2="6.41" y2="18.72" xlink:href="#e50bec9f-1468-462f-a909-6a3e9d60d580"/></defs><title>design</title><g id="b9de4d5c-d309-47bc-8c35-8c77402b1d01" data-name="Layer 2"><g id="b1309675-ab9b-4041-a495-d7fb4239d6a3" data-name="icons"><g id="aed544c1-11e9-4b5c-817b-309f978fee64" data-name="design"><rect class="e8df5833-c7df-4409-8f78-a9ea86f2cabd" width="24" height="24"/><path class="ad83e3a8-5df6-40f5-8352-d7446b80294b" d="M22,16.61,20.63,11.2a.47.47,0,0,0-.57-.34l-4.85,1.2L8,13.85l-2.94.72a.48.48,0,0,0-.34.57L5.8,19.57l.12.47,0,.18H9.29l8.57-2.11,3.76-.94A.45.45,0,0,0,22,16.61Z"/><rect class="acda4f21-b638-4443-bcf3-6ba1d4a69c08" x="16.41" y="13" width="3.4" height="3.4" transform="translate(28.03 -6.41) rotate(76.12)"/><rect class="a0f3323e-59e7-4f27-ba6c-ba537292e136" x="11.64" y="14.18" width="3.4" height="3.4" transform="translate(25.55 -0.88) rotate(76.12)"/><rect class="b1ed41f6-b440-475d-a57e-3c44653dce70" x="6.86" y="15.36" width="3.4" height="3.4" transform="translate(23.06 4.65) rotate(76.12)"/><path class="ebdc4d32-1c45-4230-a066-37c805001144" d="M17.92,7.62,13.39,4.38a.47.47,0,0,0-.65.11L9.83,8.55,5.5,14.61,3.74,17.07a.47.47,0,0,0,.11.65l3.5,2.5H9.48l0,0,6.25-8.75L18,8.27A.47.47,0,0,0,17.92,7.62Z"/><rect class="a6eb8c48-4573-4cab-a66d-ef520c337eac" x="12.05" y="6.97" width="3.4" height="3.4" transform="translate(7.6 -6.38) rotate(35.56)"/><rect class="e83f42ab-06c9-42e5-b4c4-ec300b05afb4" x="9.18" y="10.97" width="3.4" height="3.4" transform="matrix(0.81, 0.58, -0.58, 0.81, 9.4, -3.97)"/><rect class="e556cb38-1704-4ddc-9567-cfb09674e92b" x="6.32" y="14.97" width="3.4" height="3.4" transform="translate(11.19 -1.56) rotate(35.56)"/><path class="ba1e0198-cc6c-45d8-b502-25bfdd9d7029" d="M6.46,22.18a2,2,0,0,1-1-.25,1.77,1.77,0,0,1-.88-1.59.58.58,0,0,1,.58-.58h0a.58.58,0,0,1,.58.58.61.61,0,0,0,.3.58.77.77,0,0,0,.75,0,.61.61,0,0,0,.3-.58.58.58,0,0,1,.58-.58h0a.58.58,0,0,1,.58.58,1.78,1.78,0,0,1-.87,1.58A2,2,0,0,1,6.46,22.18Z"/><path class="f44824e1-5266-494b-a045-35fd6b44d4ae" d="M9.71,4.29V19.76a.45.45,0,0,1-.25.41.41.41,0,0,1-.21,0H3.68a.47.47,0,0,1-.47-.46V4.29a.47.47,0,0,1,.47-.47H9.25A.46.46,0,0,1,9.71,4.29Z"/><rect class="e8c93e41-d821-48ad-9255-77f6fe7c05d8" x="4.77" y="5.4" width="3.4" height="3.4"/><rect class="f42bfe28-da16-4221-9947-43612e18d7e1" x="4.77" y="10.32" width="3.4" height="3.4"/><rect class="a4d1049a-1eee-44bc-8061-d658b6031d7d" x="4.77" y="15.24" width="3.4" height="3.4"/></g></g></g></svg>