<svg xmlns="http://www.w3.org/2000/svg" viewBox="0 0 24 23.95"><defs><style>.b1f212d0-3e85-4438-886d-3144a4d8b7ad{fill:#ffc482;}.afa08ef7-8dcd-4142-a53e-3dec2c7f97f0{fill:#fff4e3;}.affe631b-bcd6-494f-bbb4-214b7aa19205{fill:#c37e19;}</style></defs><title>education</title><g id="ab5d2eaf-93fe-4520-803a-d34c96e83edb" data-name="Layer 2"><g id="e5645849-8e79-4419-92b5-39497ca9e4e9" data-name="icons"><g id="ab0fff54-7e07-489c-8c14-49fba80c2d10" data-name="education"><rect class="b1f212d0-3e85-4438-886d-3144a4d8b7ad" width="24" height="23.95"/><rect class="afa08ef7-8dcd-4142-a53e-3dec2c7f97f0" x="5.99" y="3.74" width="12.54" height="16.48" rx="0.58" transform="translate(-3.85 6.14) rotate(-24.42)"/><rect class="b1f212d0-3e85-4438-886d-3144a4d8b7ad" x="3.44" y="6.21" width="12.54" height="0.27" transform="translate(-1.76 4.58) rotate(-24.42)"/><rect class="b1f212d0-3e85-4438-886d-3144a4d8b7ad" x="4.2" y="7.89" width="12.54" height="0.27" transform="translate(-2.38 5.05) rotate(-24.42)"/><rect class="b1f212d0-3e85-4438-886d-3144a4d8b7ad" x="4.96" y="9.56" width="12.54" height="0.27" transform="translate(-3 5.51) rotate(-24.42)"/><rect class="b1f212d0-3e85-4438-886d-3144a4d8b7ad" x="5.72" y="11.23" width="12.54" height="0.27" transform="translate(-3.63 5.97) rotate(-24.42)"/><rect class="b1f212d0-3e85-4438-886d-3144a4d8b7ad" x="6.48" y="12.9" width="12.54" height="0.27" transform="translate(-4.25 6.44) rotate(-24.42)"/><rect class="b1f212d0-3e85-4438-886d-3144a4d8b7ad" x="7.24" y="14.57" width="12.54" height="0.27" transform="translate(-4.87 6.9) rotate(-24.42)"/><rect class="b1f212d0-3e85-4438-886d-3144a4d8b7ad" x="7.99" y="16.25" width="12.54" height="0.27" transform="translate(-5.5 7.36) rotate(-24.42)"/><rect class="b1f212d0-3e85-4438-886d-3144a4d8b7ad" x="8.75" y="17.92" width="12.54" height="0.27" transform="translate(-6.12 7.83) rotate(-24.42)"/><rect class="affe631b-bcd6-494f-bbb4-214b7aa19205" x="2.78" y="7.62" width="1.7" height="1.07" rx="0.54" transform="translate(-3.05 2.23) rotate(-24.42)"/><rect class="affe631b-bcd6-494f-bbb4-214b7aa19205" x="3.77" y="9.79" width="1.7" height="1.07" rx="0.54" transform="translate(-3.86 2.83) rotate(-24.42)"/><rect class="affe631b-bcd6-494f-bbb4-214b7aa19205" x="4.75" y="11.97" width="1.7" height="1.07" rx="0.54" transform="translate(-4.67 3.44) rotate(-24.42)"/><rect class="affe631b-bcd6-494f-bbb4-214b7aa19205" x="5.71" y="14.09" width="1.7" height="1.07" rx="0.54" transform="translate(-5.46 4.02) rotate(-24.42)"/><rect class="affe631b-bcd6-494f-bbb4-214b7aa19205" x="6.68" y="16.21" width="1.7" height="1.07" rx="0.54" transform="translate(-6.25 4.61) rotate(-24.42)"/><rect class="affe631b-bcd6-494f-bbb4-214b7aa19205" x="7.64" y="18.33" width="1.7" height="1.07" rx="0.54" transform="translate(-7.04 5.2) rotate(-24.42)"/><rect class="affe631b-bcd6-494f-bbb4-214b7aa19205" x="8.6" y="20.45" width="1.7" height="1.07" rx="0.54" transform="translate(-7.83 5.79) rotate(-24.42)"/></g></g></g></svg>