<svg xmlns="http://www.w3.org/2000/svg" xmlns:xlink="http://www.w3.org/1999/xlink" viewBox="0 0 23.97 23.97"><defs><style>.b4c011ff-54f5-4644-a180-fba9fe0c0cff{fill:#dee2e6;}.faa4f03b-9b4c-4eab-b3b2-d01f4dd3a91a{fill:url(#af466c3a-29cf-4dd5-98d4-fb90e7512773);}.eccfdb97-86f4-46e3-a224-3858286f70f6{fill:url(#aa547ee1-fb94-4b14-b8fe-068ba9bf7bef);}.a489df97-a573-4571-b9fd-b767becd1d81{fill:url(#a7792c5d-4ef0-4e4b-a46f-15fc87086bf1);}.f21f98b5-a756-46df-9d2f-5e3746770cde{fill:url(#f94757e6-eea4-413d-b843-666c30d5f2ce);}.bcaed58a-5b7a-46ab-89b0-89e7e4b8d36e{fill:url(#b4068102-ea56-47d9-992e-6c78837d46f9);}</style><linearGradient id="af466c3a-29cf-4dd5-98d4-fb90e7512773" x1="-5.91" y1="9.63" x2="18.68" y2="9.81" gradientUnits="userSpaceOnUse"><stop offset="0" stop-color="#314563"/><stop offset="1" stop-color="#68778d"/></linearGradient><linearGradient id="aa547ee1-fb94-4b14-b8fe-068ba9bf7bef" x1="-5.94" y1="14.17" x2="18.64" y2="14.36" xlink:href="#af466c3a-29cf-4dd5-98d4-fb90e7512773"/><linearGradient id="a7792c5d-4ef0-4e4b-a46f-15fc87086bf1" x1="-5.91" y1="9.53" x2="18.68" y2="9.72" xlink:href="#af466c3a-29cf-4dd5-98d4-fb90e7512773"/><linearGradient id="f94757e6-eea4-413d-b843-666c30d5f2ce" x1="-5.94" y1="14.07" x2="18.64" y2="14.26" xlink:href="#af466c3a-29cf-4dd5-98d4-fb90e7512773"/><linearGradient id="b4068102-ea56-47d9-992e-6c78837d46f9" x1="-5.92" y1="11.85" x2="18.66" y2="12.03" xlink:href="#af466c3a-29cf-4dd5-98d4-fb90e7512773"/></defs><title>engeneering</title><g id="e3ddb451-1bda-4e9f-ac1e-64b7d00532d7" data-name="Layer 2"><g id="fd2231e1-af3b-4299-bf4e-294e319058d0" data-name="icons"><g id="f7774c97-b8ec-490e-b6b8-08592f32322f" data-name="engeneering"><rect class="b4c011ff-54f5-4644-a180-fba9fe0c0cff" width="23.97" height="23.97"/><path class="faa4f03b-9b4c-4eab-b3b2-d01f4dd3a91a" d="M3.26,13.08a1.09,1.09,0,0,1-.76-1.87L7.13,6.66A1.09,1.09,0,0,1,8.66,8.22L4,12.76A1.07,1.07,0,0,1,3.26,13.08Z"/><path class="eccfdb97-86f4-46e3-a224-3858286f70f6" d="M7.9,17.62a1.08,1.08,0,0,1-.77-.31L2.5,12.76A1.09,1.09,0,1,1,4,11.21l4.64,4.54a1.08,1.08,0,0,1,0,1.54A1.06,1.06,0,0,1,7.9,17.62Z"/><path class="a489df97-a573-4571-b9fd-b767becd1d81" d="M20.71,13.08a1.07,1.07,0,0,1-.76-.32L15.31,8.22a1.09,1.09,0,0,1,1.53-1.56l4.63,4.55a1.09,1.09,0,0,1-.76,1.87Z"/><path class="f21f98b5-a756-46df-9d2f-5e3746770cde" d="M16.07,17.62a1.06,1.06,0,0,1-.77-.33,1.08,1.08,0,0,1,0-1.54L20,11.21a1.09,1.09,0,1,1,1.52,1.55l-4.63,4.55A1.08,1.08,0,0,1,16.07,17.62Z"/><path class="bcaed58a-5b7a-46ab-89b0-89e7e4b8d36e" d="M11.21,17.67l-.2,0a1.11,1.11,0,0,1-.87-1.28l1.73-9.18a1.09,1.09,0,0,1,1.27-.87A1.11,1.11,0,0,1,14,7.6l-1.73,9.18A1.08,1.08,0,0,1,11.21,17.67Z"/></g></g></g></svg>