<svg xmlns="http://www.w3.org/2000/svg" xmlns:xlink="http://www.w3.org/1999/xlink" viewBox="0 0 23.98 23.98"><defs><style>.f19b01f4-3cd0-4cc9-a30d-500ef91dffcd{fill:#eac500;}.a2995167-ecb3-4aa0-bdf9-17e624485b8e{fill:none;stroke:#fff;stroke-linecap:round;stroke-linejoin:round;stroke-width:1.32px;}.af151ddf-3ac3-4d23-98dd-bffdfab507c5{fill:url(#a397d253-afc1-4d6a-807c-82a79d060eff);}.b4436b56-ff8f-4835-9a3d-4854cf6b432d{fill:url(#b477695b-f117-4663-8900-2d46923cfbb8);}.bb4f7e19-a0b0-4d16-b571-12b428a36f82{fill:url(#a7a26766-e41f-46cc-a9e4-dab22ad7351e);}.aab23687-9a51-4fe8-a9b8-ba061fb1dbae{fill:url(#b0213284-952b-4089-b898-65de29a2161b);}.be546dcd-8220-4100-a347-6d8af6abe10e{fill:url(#baa10cc0-f7a3-49e3-ac1a-165b84aa4cbf);}.ab43502b-d0ce-4f53-a036-5a47a2b9080b{fill:#fff;}.a08a6330-ab4a-4a25-8b06-6c15b7b8dea0{fill:url(#a9fd0b2e-d264-45d5-915e-f9ec18a7f305);}.a10716b8-729a-4f4e-8796-b266eaa5ec1d{fill:url(#b66d7dac-26fb-4eb8-81d4-02feb7e12789);}.bc37214c-cdda-48e9-94bd-460368a37262{fill:url(#a046e16f-7c45-410a-aeb1-306f3dda75a5);}</style><linearGradient id="a397d253-afc1-4d6a-807c-82a79d060eff" x1="23.33" y1="15.52" x2="21.01" y2="15.95" gradientUnits="userSpaceOnUse"><stop offset="0" stop-color="#d1a209"/><stop offset="1" stop-color="#c38e30"/></linearGradient><linearGradient id="b477695b-f117-4663-8900-2d46923cfbb8" x1="16.49" y1="13.27" x2="14.03" y2="14.72" gradientUnits="userSpaceOnUse"><stop offset="0" stop-color="#f5e150"/><stop offset="1" stop-color="#c38e30"/></linearGradient><linearGradient id="a7a26766-e41f-46cc-a9e4-dab22ad7351e" x1="10.91" y1="13.39" x2="8.14" y2="14.59" xlink:href="#b477695b-f117-4663-8900-2d46923cfbb8"/><linearGradient id="b0213284-952b-4089-b898-65de29a2161b" x1="10.97" y1="15.36" x2="10.97" y2="13.01" xlink:href="#a397d253-afc1-4d6a-807c-82a79d060eff"/><linearGradient id="baa10cc0-f7a3-49e3-ac1a-165b84aa4cbf" x1="12.31" y1="8.9" x2="-0.13" y2="9.01" gradientUnits="userSpaceOnUse"><stop offset="0" stop-color="#f5e150"/><stop offset="1" stop-color="#fbf3bc"/></linearGradient><linearGradient id="a9fd0b2e-d264-45d5-915e-f9ec18a7f305" x1="15.14" y1="20.65" x2="12.54" y2="20.58" xlink:href="#a397d253-afc1-4d6a-807c-82a79d060eff"/><linearGradient id="b66d7dac-26fb-4eb8-81d4-02feb7e12789" x1="13.85" y1="10.26" x2="13.71" y2="8.12" xlink:href="#a397d253-afc1-4d6a-807c-82a79d060eff"/><linearGradient id="a046e16f-7c45-410a-aeb1-306f3dda75a5" x1="13.97" y1="10.25" x2="13.83" y2="8.11" xlink:href="#a397d253-afc1-4d6a-807c-82a79d060eff"/></defs><title>project management</title><g id="a5950ba7-c3ee-4177-a778-935bb79a12b4" data-name="Layer 2"><g id="a4073000-ff7c-4cee-bed6-604dbf2f16a5" data-name="icons"><g id="b709ea75-569d-44c3-83dc-a429de779f12" data-name="project management"><rect class="f19b01f4-3cd0-4cc9-a30d-500ef91dffcd" width="23.98" height="23.98"/><path id="a7dd67d9-06e9-4f59-892f-eb18eddb7532" data-name="Layer6 0 1 STROKES" class="a2995167-ecb3-4aa0-bdf9-17e624485b8e" d="M14.75,15a5.1,5.1,0,0,0,5.78,1.19"/><g id="a3de6c5d-9ded-484b-8a5d-a4edbf93d390" data-name="Layer6 0 2 STROKES"><path class="af151ddf-3ac3-4d23-98dd-bffdfab507c5" d="M20.73,16.65a.18.18,0,0,1-.16-.08.2.2,0,0,1,0-.29,1.27,1.27,0,0,1,1.4-.19.21.21,0,0,1,.1.28.21.21,0,0,1-.28.1.84.84,0,0,0-.95.14A.23.23,0,0,1,20.73,16.65Zm-.05-.77a.23.23,0,0,1-.17-.08.22.22,0,0,1,0-.3,1.29,1.29,0,0,1,1.4-.19.22.22,0,0,1,.11.28.21.21,0,0,1-.28.11.84.84,0,0,0-1,.13A.24.24,0,0,1,20.68,15.88Z"/></g><path class="b4436b56-ff8f-4835-9a3d-4854cf6b432d" d="M13,14.77a1.07,1.07,0,0,0,.25.35,1.23,1.23,0,0,0,2.1-.87,1.15,1.15,0,0,0-.36-.86l-.15-.14c-.15.19-.31.38-.48.56A5,5,0,0,1,13,14.77Z"/><path class="bb4f7e19-a0b0-4d16-b571-12b428a36f82" d="M10.14,14.25A1.25,1.25,0,0,0,8.91,13a1.27,1.27,0,0,0-1.19.9,1.86,1.86,0,0,0,0,.33,1.22,1.22,0,0,0,2.1.87l.05,0A1.16,1.16,0,0,0,10.14,14.25Z"/><path class="aab23687-9a51-4fe8-a9b8-ba061fb1dbae" d="M9,12.55H6.69a4.73,4.73,0,0,0,.92,1.26l.11.11a1.23,1.23,0,0,1,2.06-.53,1.15,1.15,0,0,1,.36.86,1.16,1.16,0,0,1-.31.82A4.69,4.69,0,0,0,11,15.2a4.62,4.62,0,0,0,2-.43,5,5,0,0,0,1.36-1c.17-.18.33-.37.48-.56a4.53,4.53,0,0,0,.43-.7Z"/><path class="be546dcd-8220-4100-a347-6d8af6abe10e" d="M3.08,5.36a.88.88,0,0,0-1,1v5.21a.88.88,0,0,0,1,1H9a1,1,0,0,1-.25,0c-.47-.08-.7-.4-.7-1V6.35a.87.87,0,0,1,1-1Z"/><path class="ab43502b-d0ce-4f53-a036-5a47a2b9080b" d="M19.75,11.56V6.35a.88.88,0,0,0-1-1H9a.87.87,0,0,0-1,1v5.21c0,.56.23.88.7,1a1,1,0,0,0,.25,0h9.79A.88.88,0,0,0,19.75,11.56Z"/><path id="a92d3128-b019-4d5e-b5af-9cd5b3c2048a" data-name="Layer3 0 1 STROKES" class="a2995167-ecb3-4aa0-bdf9-17e624485b8e" d="M8.83,14.68a5.1,5.1,0,0,0,2.72,5.24"/><g id="a96a1d11-04aa-4428-ae26-e4a0a40132e7" data-name="Layer3 0 2 STROKES"><path class="a08a6330-ab4a-4a25-8b06-6c15b7b8dea0" d="M12.17,21.35H12.1a1.49,1.49,0,0,1-.79-.64.21.21,0,0,1,.36-.22,1.11,1.11,0,0,0,.57.47.21.21,0,0,1,.13.27A.22.22,0,0,1,12.17,21.35Zm.41-.6h-.07a1.6,1.6,0,0,1-.8-.64.21.21,0,1,1,.36-.22,1.16,1.16,0,0,0,.58.46.21.21,0,0,1-.07.41Z"/></g><g id="aef134ef-ee25-46a5-bd04-c51f1f46cd45" data-name="Layer2 0 FILL"><path class="a10716b8-729a-4f4e-8796-b266eaa5ec1d" d="M13,11c-.11,0-.15.05-.13.15s.13.19.33.27a2,2,0,0,0,1.35,0c.2-.08.31-.16.33-.27s0-.15-.13-.15Z"/><path class="bc37214c-cdda-48e9-94bd-460368a37262" d="M17.55,8a.48.48,0,0,0-.36-.14.45.45,0,0,0-.35.14.49.49,0,0,0-.15.36v1a.49.49,0,0,0,.15.36.45.45,0,0,0,.35.15.51.51,0,0,0,.51-.51v-1A.49.49,0,0,0,17.55,8M10.93,8a.53.53,0,0,0-.72,0,.52.52,0,0,0-.14.36v1a.52.52,0,0,0,.14.36.51.51,0,0,0,.87-.36v-1A.49.49,0,0,0,10.93,8Z"/></g></g></g></g></svg>